PathFileType	4	(X/Y/Z)	/Users/niels/Desktop/University/Third Semester/Perception and Action/Exam/Gymnastics Motion Tracking/Code for Gym Tracking/Analyzed Data/Webcam_Backflip/id2007_1_pure_Sports2D/id2007_1_pure_Sports2D_px_person00.trc
DataRate	CameraRate	NumFrames	NumMarkers	Units	OrigDataRate	OrigDataStartFrame	OrigNumFrames
29.795918367346935	29.795918367346935	12	22	m	29.795918367346935	36	147
Frame#	Time	Hip			RHip			RKnee			RAnkle			RBigToe			RSmallToe			RHeel			LHip			LKnee			LAnkle			LBigToe			LSmallToe			LHeel			Neck			Head			Nose			RShoulder			RElbow			RWrist			LShoulder			LElbow			LWrist		
		X1	Y1	Z1	X2	Y2	Z2	X3	Y3	Z3	X4	Y4	Z4	X5	Y5	Z5	X6	Y6	Z6	X7	Y7	Z7	X8	Y8	Z8	X9	Y9	Z9	X10	Y10	Z10	X11	Y11	Z11	X12	Y12	Z12	X13	Y13	Z13	X14	Y14	Z14	X15	Y15	Z15	X16	Y16	Z16	X17	Y17	Z17	X18	Y18	Z18	X19	Y19	Z19	X20	Y20	Z20	X21	Y21	Z21	X22	Y22	Z22
36	1.2082191780821918	0.9351050348244145	-0.7529365913574221	0.0	0.8924517015956395	-0.7499607182042106	0.0	0.9193601330841193	-1.0572994980112784	0.0			0.0			0.0			0.0			0.0	0.9866922098104388	-0.7648352580691825	0.0	0.9751719882461876	-1.0614750999764306	0.0	1.1223947753906245	-1.0779008789062505	0.0			0.0			0.0			0.0	0.9789842469609729	-0.2720406504382702	0.0	1.0253384425527097	-0.08301221467723767	0.0	1.0340167941963434	-0.17857488823727732	0.0	0.8925585645692946	-0.3252014126237385	0.0	0.9058116246363958	-0.5693291889616845	0.0	0.9785023082892658	-0.799395456712752	0.0	1.0309333453500114	-0.3692918722471098	0.0	1.0667888812953292	-0.5898257719129846	0.0	1.096923152399852	-0.7788562470931685	0.0
37	1.2417808219178084	0.9384067834241421	-0.7556803728282643	0.0	0.8977710699735117	-0.7521276668170418	0.0	0.9177815503434317	-1.05780009420306	0.0			0.0			0.0			0.0			0.0	0.9887718404138787	-0.7672506999412511	0.0	0.9789283333164398	-1.0622866897667211	0.0	1.1223947753906245	-1.0779008789062505	0.0			0.0			0.0			0.0	0.9772160495790551	-0.272590369342072	0.0	1.0233023369132217	-0.08340932006690913	0.0	1.0327393118816368	-0.17845618256203527	0.0	0.8948858292686905	-0.32545929686908937	0.0	0.9114708004702484	-0.5691800124308286	0.0	0.9879353443440977	-0.7973047279682643	0.0	1.0286306097419755	-0.36788597262842493	0.0	1.0653102063290754	-0.5902887058904119	0.0	1.0997805696392202	-0.7771536482591087	0.0
38	1.2753424657534247	0.9411783118935286	-0.7577447000727655	0.0	0.902371206451737	-0.7536045664081196	0.0	0.9168451121377459	-1.0580269821866428	0.0			0.0			0.0			0.0			0.0	0.9905417151315542	-0.7688154015564624	0.0	0.9826395911636312	-1.0627848606107182	0.0	1.1223947753906245	-1.0779008789062505	0.0			0.0			0.0			0.0	0.9755380489158195	-0.2728474655136214	0.0	1.0210481569196197	-0.08349695274306196	0.0	1.0312631632980287	-0.17796412023521432	0.0	0.897238174927292	-0.32576861854732225	0.0	0.9172242594820915	-0.5693650506005742	0.0	0.9969051814932153	-0.7953766525185756	0.0	1.0263499439792851	-0.3665782320289032	0.0	1.0636497119664658	-0.5904692593943344	0.0	1.1025174124097001	-0.7754264873152389	0.0
39	1.308904109589041	0.9432253084819899	-0.7586456329889308	0.0	0.9061267518893399	-0.7540633994276124	0.0	0.9170333657738922	-1.0581097358413456	0.0			0.0			0.0			0.0			0.0	0.9917482432305446	-0.769111788274473	0.0	0.9859460519284661	-1.0630107827536341	0.0	1.1223947753906245	-1.0779008789062505	0.0			0.0			0.0			0.0	0.9741212232699504	-0.27284075052123413	0.0	1.0187712406241622	-0.08326833936103696	0.0	1.02977728634364	-0.17716198730791077	0.0	0.899450524550408	-0.326103289677067	0.0	0.9227246376172853	-0.5698567990664348	0.0	1.0054487093803997	-0.7936296124539215	0.0	1.0241826625966677	-0.36530506103178845	0.0	1.061782680609156	-0.5901681575479716	0.0	1.1047134925546302	-0.7736112466410913	0.0
40	1.3424657534246576	0.9445248810376444	-0.7582068958328779	0.0	0.9091838396511891	-0.7535683421479371	0.0	0.9186149664505898	-1.0582076729837406	0.0			0.0			0.0			0.0			0.0	0.9921545643008541	-0.7682132773654456	0.0	0.98862105432795	-1.0629556618418567	0.0	1.1223947753906245	-1.0779008789062505	0.0			0.0			0.0			0.0	0.9729669420661894	-0.272661076820836	0.0	1.0166012012733272	-0.08286462972344832	0.0	1.0284705922998343	-0.17627048545495766	0.0	0.9013806092143808	-0.3264535792493217	0.0	0.9276120784056809	-0.5705423586642414	0.0	1.0135510147764932	-0.791956018023778	0.0	1.022155920686543	-0.3638915451873409	0.0	1.0594504819527493	-0.5891273934694536	0.0	1.1059044543593448	-0.7715828816978002	0.0
41	1.3760273972602741	0.9452166902541311	-0.7567123394732826	0.0	0.9117666323371768	-0.7525246901747096	0.0	0.9214403183530162	-1.0583282869228487	0.0			0.0			0.0			0.0			0.0	0.9917435245591907	-0.7666372422541823	0.0	0.9906297715446942	-1.0625714054904263	0.0	1.1223947753906245	-1.0779008789062505	0.0			0.0			0.0			0.0	0.972027722996329	-0.27241977909001963	0.0	1.0146188673224827	-0.08244869398032766	0.0	1.0274940217668556	-0.17555149815816515	0.0	0.9029530357663864	-0.32683669561375567	0.0	0.9316948289103347	-0.5712373316654046	0.0	1.021072929072033	-0.790230008365202	0.0	1.0203275137863526	-0.36220055002654833	0.0	1.056326498568405	-0.5871457678137254	0.0	1.10569507864555	-0.7692982503447443	0.0
42	1.4095890410958904	0.9455678060342421	-0.754773135007154	0.0	0.9140463762517486	-0.7514003395236628	0.0	0.9249341503640005	-1.0583432896137879	0.0			0.0			0.0			0.0			0.0	0.9908080426117891	-0.765016111205974	0.0	0.9920501822391715	-1.061848211300894	0.0	1.1223947753906245	-1.0779008789062505	0.0			0.0			0.0			0.0	0.9712831719454332	-0.27222495855246115	0.0	1.012909621766811	-0.08208318489523517	0.0	1.0269445473395549	-0.17514257318315776	0.0	0.9041940598033978	-0.3272587074613309	0.0	0.9349968212491668	-0.5717533860121711	0.0	1.027853010602907	-0.7884378029174278	0.0	1.01884602866739	-0.36025600133948626	0.0	1.0522884160461758	-0.5841976227483759	0.0	1.1038878655273505	-0.7669190494906196	0.0
43	1.4431506849315068	0.9458750452883665	-0.7530364802827987	0.0	0.9161175897062618	-0.7505400500021706	0.0	0.9283846677256392	-1.0581828304927905	0.0			0.0			0.0			0.0			0.0	0.9897926331409233	-0.7638199619290666	0.0	0.9929679371948832	-1.0609149324757192	0.0	1.1223947753906245	-1.0779008789062505	0.0			0.0			0.0			0.0	0.9707285658085238	-0.27210757968047145	0.0	1.0115885717901225	-0.08175174982525878	0.0	1.0268288623468995	-0.17499364499652575	0.0	0.9051957889013543	-0.3276623693085904	0.0	0.9376579676049868	-0.5719864213093858	0.0	1.033779479061658	-0.7866889336340771	0.0	1.0178573720937794	-0.35821403938780577	0.0	1.0475245158857862	-0.5804908690877201	0.0	1.1005499751501682	-0.7647301363588614	0.0
44	1.4767123287671233	0.9463918416634995	-0.7519969785945937	0.0	0.9180350778827762	-0.7502057642863331	0.0	0.9312699945844629	-1.0579131877031462	0.0			0.0			0.0			0.0			0.0	0.9891458237615813	-0.7633581172326438	0.0	0.9934927814041372	-1.0600275652550846	0.0	1.1223947753906245	-1.0779008789062505	0.0			0.0			0.0			0.0	0.9704062621547382	-0.2719831680192347	0.0	1.0107320124906956	-0.08141264786735264	0.0	1.027088200983542	-0.17493128179433703	0.0	0.9060770864365051	-0.3279607410620341	0.0	0.9398445275872042	-0.5719377344232417	0.0	1.038685801717443	-0.7851354548972329	0.0	1.0174220504149356	-0.3562762860683471	0.0	1.042581071674588	-0.5764950432423622	0.0	1.0960526626334728	-0.7629737513756671	0.0
45	1.5102739726027399	0.9472333323311479	-0.7518762649045314	0.0	0.9197751085408147	-0.7505532493967748	0.0	0.9333714714185324	-1.0576003359695958	0.0			0.0			0.0			0.0			0.0	0.9892342254353464	-0.7637805065888068	0.0	0.9938227662003507	-1.0594077917552804	0.0	1.1223947753906245	-1.0779008789062505	0.0			0.0			0.0			0.0	0.9704207268774349	-0.2717274883424549	0.0	1.0103178573901603	-0.0810149225724245	0.0	1.027653802422236	-0.17478779571939038	0.0	0.9069558162552341	-0.3281012981114149	0.0	0.9416804557907936	-0.5716566957422794	0.0	1.0422725179380976	-0.7839374566934145	0.0	1.0175419942900645	-0.35463692104622907	0.0	1.038287374033167	-0.5728729357866394	0.0	1.091100226805334	-0.761800764450331	0.0
46	1.5438356164383562	0.9482807522557218	-0.7525117226267914	0.0	0.9211673826621344	-0.751460193205407	0.0	0.9346950808632329	-1.0572212678552841	0.0			0.0			0.0			0.0			0.0	0.9901663961840295	-0.7649275632473325	0.0	0.9941644353180458	-1.0591051037208181	0.0	1.1223947753906245	-1.0779008789062505	0.0			0.0			0.0			0.0	0.9708453260639618	-0.27126721436198603	0.0	1.010291521237301	-0.08052262491490574	0.0	1.0284342414667034	-0.17449376256498753	0.0	0.9078790519085582	-0.3280418056759622	0.0	0.9431746003274247	-0.5712172584618675	0.0	1.0442465292984102	-0.7832734682978526	0.0	1.0181497296251585	-0.35342446031525504	0.0	1.0353972200142079	-0.5702332187653896	0.0	1.0866449172453256	-0.7612621528972241	0.0
47	1.5773972602739725	0.9492835057834	-0.7534817672071076	0.0	0.9220168370770793	-0.7525654209260235	0.0	0.9353695479103801	-1.0567749465287208	0.0			0.0			0.0			0.0			0.0	0.991689616467479	-0.7663592127404955	0.0	0.9945782925207752	-1.0590113229973068	0.0	1.1223947753906245	-1.0779008789062505	0.0			0.0			0.0			0.0	0.9716356683522765	-0.27061699593983923	0.0	1.010622813227529	-0.07994917412455536	0.0	1.0292889388429465	-0.17409719830255646	0.0	0.9087896384898033	-0.32774231250724595	0.0	0.9442516671386665	-0.5707683692958153	0.0	1.0445289422035642	-0.7832790054666348	0.0	1.0190721508692875	-0.35264595942087346	0.0	1.0342490652601304	-0.5688579941912227	0.0	1.0835869098676647	-0.7612837520073621	0.0
